<svg width="97" height="38" viewBox="0 0 97 38" fill="none" xmlns="http://www.w3.org/2000/svg">
<path d="M67.9249 24.6918H71.6681L66.7328 30.6631L72.1026 37.147H68.2479L63.1567 30.8302V37.147H59.7588V24.6918H63.1567V30.7411L67.9249 24.6918Z" fill="#332C22"/>
<path d="M57.4087 30.8971C57.4087 31.9369 57.2676 32.8579 56.9854 33.66C56.7106 34.4621 56.3058 35.1417 55.771 35.6987C55.2437 36.2483 54.605 36.6642 53.8549 36.9465C53.1121 37.2287 52.2729 37.3698 51.3371 37.3698C50.4607 37.3698 49.6548 37.2287 48.9196 36.9465C48.1917 36.6642 47.5567 36.2483 47.0145 35.6987C46.4798 35.1417 46.0638 34.4621 45.7668 33.66C45.4771 32.8579 45.3323 31.9369 45.3323 30.8971C45.3323 29.5157 45.5774 28.3459 46.0676 27.3878C46.5577 26.4297 47.2559 25.7019 48.162 25.2042C49.0681 24.7066 50.1487 24.4578 51.4039 24.4578C52.57 24.4578 53.6023 24.7066 54.501 25.2042C55.4071 25.7019 56.1164 26.4297 56.6289 27.3878C57.1488 28.3459 57.4087 29.5157 57.4087 30.8971ZM48.797 30.8971C48.797 31.7141 48.8861 32.4011 49.0644 32.9581C49.2426 33.5152 49.5212 33.9348 49.8999 34.217C50.2787 34.4992 50.7726 34.6404 51.3816 34.6404C51.9832 34.6404 52.4697 34.4992 52.8411 34.217C53.2198 33.9348 53.4946 33.5152 53.6655 32.9581C53.8437 32.4011 53.9328 31.7141 53.9328 30.8971C53.9328 30.0727 53.8437 29.3894 53.6655 28.8472C53.4946 28.2976 53.2198 27.8854 52.8411 27.6106C52.4623 27.3358 51.9684 27.1984 51.3594 27.1984C50.4607 27.1984 49.8071 27.5066 49.3986 28.1231C48.9975 28.7395 48.797 29.6642 48.797 30.8971Z" fill="#332C22"/>
<path d="M42.9809 24.6918V37.147H39.5718V27.243H35.0599V37.147H31.662V24.6918H42.9809Z" fill="#332C22"/>
<path d="M23.4273 24.4355C25.0984 24.4355 26.3796 24.7995 27.2708 25.5273C28.1621 26.2552 28.6077 27.3618 28.6077 28.8472V37.147H26.2347L25.5774 35.4536H25.4883C25.1318 35.8992 24.7679 36.2632 24.3965 36.5454C24.0252 36.8276 23.5981 37.0356 23.1154 37.1693C22.6326 37.303 22.0459 37.3698 21.3551 37.3698C20.6199 37.3698 19.9589 37.2287 19.3721 36.9465C18.7928 36.6642 18.336 36.2335 18.0018 35.6541C17.6676 35.0674 17.5005 34.3247 17.5005 33.426C17.5005 32.104 17.9647 31.131 18.8931 30.5072C19.8215 29.8759 21.214 29.5268 23.0708 29.46L25.2321 29.3931V28.8472C25.2321 28.1936 25.0613 27.7146 24.7196 27.4101C24.378 27.1056 23.9026 26.9533 23.2936 26.9533C22.692 26.9533 22.1016 27.0387 21.5223 27.2095C20.9429 27.3804 20.3636 27.5958 19.7843 27.8557L18.6591 25.5607C19.3201 25.2117 20.0591 24.9369 20.8761 24.7363C21.7005 24.5358 22.5509 24.4355 23.4273 24.4355ZM25.2321 31.3761L23.9175 31.4207C22.8183 31.4504 22.0533 31.6472 21.6225 32.0112C21.1992 32.3751 20.9875 32.8541 20.9875 33.4483C20.9875 33.9682 21.1398 34.3395 21.4443 34.5624C21.7488 34.7777 22.1461 34.8854 22.6363 34.8854C23.3642 34.8854 23.9769 34.6701 24.4745 34.2393C24.9796 33.8085 25.2321 33.1958 25.2321 32.4011V31.3761Z" fill="#332C22"/>
<path d="M14.938 37.147H11.4955V23.7337H7.50717C7.41804 24.4319 7.32149 25.1932 7.21751 26.0176C7.11353 26.842 7.00584 27.6738 6.89443 28.5131C6.78303 29.3523 6.6642 30.1507 6.53793 30.9083C6.4191 31.6659 6.30027 32.3306 6.18143 32.9025C5.98833 33.8531 5.72467 34.6627 5.39045 35.3311C5.06366 35.9921 4.61432 36.4972 4.04243 36.8463C3.47798 37.1953 2.73898 37.3699 1.82545 37.3699C1.52094 37.3699 1.22757 37.3476 0.945339 37.303C0.670537 37.2585 0.414302 37.199 0.176636 37.1248V34.295C0.36974 34.3619 0.562844 34.4176 0.755948 34.4622C0.949053 34.4993 1.16072 34.5179 1.39096 34.5179C1.68805 34.5179 1.93314 34.4213 2.12625 34.2282C2.32678 34.0277 2.50503 33.6897 2.661 33.2144C2.81696 32.7316 2.97293 32.0669 3.1289 31.2202C3.19575 30.8489 3.28487 30.3253 3.39628 29.6494C3.50768 28.9661 3.63394 28.1677 3.77506 27.2542C3.91617 26.3332 4.061 25.3306 4.20954 24.2462C4.36551 23.1618 4.51405 22.0329 4.65517 20.8595H14.938V37.147Z" fill="#332C22"/>
<path d="M91.4661 3.57608C93.1372 3.57608 94.4184 3.94001 95.3096 4.66786C96.2009 5.39572 96.6465 6.50235 96.6465 7.98777V16.2875H94.2736L93.6163 14.5942H93.5271C93.1706 15.0398 92.8067 15.4037 92.4354 15.6859C92.064 15.9682 91.6369 16.1761 91.1542 16.3098C90.6714 16.4435 90.0847 16.5104 89.394 16.5104C88.6587 16.5104 87.9977 16.3692 87.4109 16.087C86.8316 15.8048 86.3749 15.374 86.0406 14.7947C85.7064 14.208 85.5393 13.4652 85.5393 12.5666C85.5393 11.2445 86.0035 10.2716 86.9319 9.64772C87.8603 9.01642 89.2529 8.66735 91.1096 8.6005L93.2709 8.53366V7.98777C93.2709 7.33419 93.1001 6.85514 92.7584 6.55063C92.4168 6.24612 91.9415 6.09386 91.3324 6.09386C90.7308 6.09386 90.1404 6.17927 89.5611 6.3501C88.9818 6.52092 88.4025 6.73631 87.8231 6.99625L86.6979 4.70128C87.3589 4.35221 88.0979 4.07741 88.9149 3.87688C89.7393 3.67635 90.5897 3.57608 91.4661 3.57608ZM93.2709 10.5167L91.9563 10.5613C90.8571 10.591 90.0921 10.7878 89.6613 11.1517C89.238 11.5156 89.0263 11.9947 89.0263 12.5888C89.0263 13.1087 89.1786 13.4801 89.4831 13.7029C89.7876 13.9183 90.185 14.026 90.6751 14.026C91.403 14.026 92.0157 13.8106 92.5133 13.3798C93.0184 12.9491 93.2709 12.3363 93.2709 11.5416V10.5167Z" fill="#332C22"/>
<path d="M80.8593 3.83231H84.6026L79.6673 9.80368L85.0371 16.2875H81.1824L76.0911 9.97079V16.2875H72.6932V3.83231H76.0911V9.88167L80.8593 3.83231Z" fill="#332C22"/>
<path d="M61.4421 3.83231V8.62278H66.188V3.83231H69.5859V16.2875H66.188V11.1517H61.4421V16.2875H58.0442V3.83231H61.4421Z" fill="#332C22"/>
<path d="M45.3424 3.83231V8.75646C45.3424 9.00898 45.3313 9.32835 45.309 9.71456C45.2941 10.0933 45.2718 10.4795 45.2421 10.8732C45.2124 11.2668 45.1827 11.6196 45.153 11.9315C45.1233 12.2435 45.101 12.4552 45.0862 12.5666L50.8347 3.83231H54.9233V16.2875H51.6368V11.3188C51.6368 10.9103 51.6517 10.461 51.6814 9.97079C51.7111 9.47318 51.7445 9.00527 51.7817 8.56707C51.8188 8.12888 51.8448 7.79837 51.8597 7.57556L46.1334 16.2875H42.0559V3.83231H45.3424Z" fill="#332C22"/>
<path d="M40.1851 6.38351H36.1076V16.2875H32.7097V6.38351H28.6211V3.83231H40.1851V6.38351Z" fill="#332C22"/>
<path d="M21.6465 3.57608C23.3176 3.57608 24.5988 3.94001 25.4901 4.66786C26.3813 5.39572 26.8269 6.50235 26.8269 7.98777V16.2875H24.454L23.7967 14.5942H23.7076C23.3511 15.0398 22.9871 15.4037 22.6158 15.6859C22.2444 15.9682 21.8174 16.1761 21.3346 16.3098C20.8518 16.4435 20.2651 16.5104 19.5744 16.5104C18.8391 16.5104 18.1781 16.3692 17.5914 16.087C17.012 15.8048 16.5553 15.374 16.2211 14.7947C15.8868 14.208 15.7197 13.4652 15.7197 12.5666C15.7197 11.2445 16.1839 10.2716 17.1123 9.64772C18.0407 9.01642 19.4333 8.66735 21.29 8.6005L23.4513 8.53366V7.98777C23.4513 7.33419 23.2805 6.85514 22.9389 6.55063C22.5972 6.24612 22.1219 6.09386 21.5129 6.09386C20.9113 6.09386 20.3208 6.17927 19.7415 6.3501C19.1622 6.52092 18.5829 6.73631 18.0036 6.99625L16.8784 4.70128C17.5394 4.35221 18.2784 4.07741 19.0953 3.87688C19.9197 3.67635 20.7701 3.57608 21.6465 3.57608ZM23.4513 10.5167L22.1367 10.5613C21.0375 10.591 20.2725 10.7878 19.8418 11.1517C19.4184 11.5156 19.2067 11.9947 19.2067 12.5888C19.2067 13.1087 19.359 13.4801 19.6635 13.7029C19.968 13.9183 20.3654 14.026 20.8556 14.026C21.5834 14.026 22.1961 13.8106 22.6938 13.3798C23.1988 12.9491 23.4513 12.3363 23.4513 11.5416V10.5167Z" fill="#332C22"/>
<path d="M15.2181 16.2876H11.2743L7.4865 10.1268L3.69869 16.2876H0L5.4032 7.88757L0.345359 0H4.15545L7.66475 5.85997L11.1072 0H14.8282L9.71463 8.07696L15.2181 16.2876Z" fill="#332C22"/>
</svg>
